# xmcd CD database file
#
# Track frame offsets:
#	150
#	16337
#	32970
#	51735
#	71925
#	85617
#	106297
#	119522
#	138972
#	154415
#	168392
#	191435
#	208160
#	228015
#	246117
#
# Disc length: 3495 seconds
#
# Revision: 7
# Processed by: cddbd v1.5.2PL0 Copyright (c) Steve Scherf et al.
# Submitted via: CDex 1.70beta2
#
DISCID=d40da50f
DTITLE=Nils Landgren and Esbjörn Svensson - Layers of Light
DYEAR=2001
DGENRE=Jazz
TTITLE0=Vallåt från Hammerdal
TTITLE1=Get-Trall
TTITLE2=Slatt-Kauk
TTITLE3=Kristallen den fina
TTITLE4=Vallåt från Mattmar
TTITLE5=Låkk-Låt
TTITLE6=Halling efter Höpsi-Kerstin
TTITLE7=Vallåt
TTITLE8=Vaggvisa
TTITLE9=Thuressons visa
TTITLE10=Layers of Light (Esbjörn Svensson)
TTITLE11=Psalm (Lonely at the Lakeside)
TTITLE12=Halling
TTITLE13=Gånglåt efter Lapp-Nils
TTITLE14=The Farewell (Bengt-Arne Wallin)
EXTD=YEAR: 2001
EXTT0=
EXTT1=
EXTT2=
EXTT3=
EXTT4=
EXTT5=
EXTT6=
EXTT7=
EXTT8=
EXTT9=
EXTT10=
EXTT11=
EXTT12=
EXTT13=
EXTT14=
PLAYORDER=
